HIERARCHY
ROOT Hips
{
	OFFSET 13.711707 103.226585 -2.860346
	CHANNELS 6 Xposition Yposition Zposition Xrotation Yrotation Zrotation
	JOINT Chest
	{
		OFFSET 2.517739 13.337593 1.387043
		CHANNELS 3 Xrotation Yrotation Zrotation
		JOINT Chest2
		{
			OFFSET -3.735543 20.491013 5.023003
			CHANNELS 3 Xrotation Yrotation Zrotation
			JOINT Chest3
			{
				OFFSET -1.085781 14.826950 1.342654
				CHANNELS 3 Xrotation Yrotation Zrotation
				JOINT Neck
				{
					OFFSET -0.548838 16.936081 3.388807
					CHANNELS 3 Xrotation Yrotation Zrotation
					JOINT Head
					{
						OFFSET -3.589681 9.179428 3.560884
						CHANNELS 3 Xrotation Yrotation Zrotation
						End Site
						{
							OFFSET -3.544423 9.214478 3.515414
						}
					}
				}
				JOINT LeftCollar
				{
					OFFSET 1.971386 12.184525 7.032438
					CHANNELS 3 Xrotation Yrotation Zrotation
					JOINT LeftUpArm
					{
						OFFSET 17.288994 2.998871 0.772516
						CHANNELS 3 Xrotation Yrotation Zrotation
						JOINT LeftLowArm
						{
							OFFSET 28.977489 6.466766 16.069035
							CHANNELS 3 Xrotation Yrotation Zrotation
							JOINT LeftHand
							{
								OFFSET 24.995922 3.148254 16.316837
								CHANNELS 3 Xrotation Yrotation Zrotation
								End Site
								{
									OFFSET 5.463013 0.688080 3.566132
								}
							}
						}
					}
				}
				JOINT RightCollar
				{
					OFFSET -5.483938 12.717361 3.162899
					CHANNELS 3 Xrotation Yrotation Zrotation
					JOINT RightUpArm
					{
						OFFSET -8.952862 3.688873 -14.653833
						CHANNELS 3 Xrotation Yrotation Zrotation
						JOINT RightLowArm
						{
							OFFSET -27.096754 8.586426 -18.214653
							CHANNELS 3 Xrotation Yrotation Zrotation
							JOINT RightHand
							{
								OFFSET -26.644745 8.386261 -10.985559
								CHANNELS 3 Xrotation Yrotation Zrotation
								End Site
								{
									OFFSET -5.823490 1.832870 -2.400997
								}
							}
						}
					}
				}
			}
		}
	}
	JOINT LeftUpLeg
	{
		OFFSET 8.239137 -2.106758 5.300694
		CHANNELS 3 Xrotation Yrotation Zrotation
		JOINT LeftLowLeg
		{
			OFFSET -0.643332 -47.349655 1.259512
			CHANNELS 3 Xrotation Yrotation Zrotation
			JOINT LeftFoot
			{
				OFFSET 0.939413 -42.359474 -14.330421
				CHANNELS 3 Xrotation Yrotation Zrotation
				JOINT LeftToe
				{
					OFFSET -8.350841 -15.902189 15.392975
					CHANNELS 3 Xrotation Yrotation Zrotation
					End Site
					{
						OFFSET -7.971971 -1.497803 22.220783
					}
				}
			}
		}
	}
	JOINT RightUpLeg
	{
		OFFSET -8.239176 2.106567 -5.300715
		CHANNELS 3 Xrotation Yrotation Zrotation
		JOINT RightLowLeg
		{
			OFFSET -41.176517 -0.402016 23.416746
			CHANNELS 3 Xrotation Yrotation Zrotation
			JOINT RightFoot
			{
				OFFSET -15.119644 -41.913555 3.902575
				CHANNELS 3 Xrotation Yrotation Zrotation
				JOINT RightToe
				{
					OFFSET -18.224281 -3.568981 14.652462
					CHANNELS 3 Xrotation Yrotation Zrotation
					End Site
					{
						OFFSET -16.624832 12.030884 11.765587
					}
				}
			}
		}
	}
}
MOTION
Frames: 15
Frame Time: 0.033333
13.219951 100.818993 -2.679781 1.275111 -0.711194 1.571858 0.441868 0.284879 -2.115084 -0.598784 -0.915990 1.095975 0.198537 0.091358 -0.668515 -1.867748 0.508256 -0.432862 -0.000002 -0.000001 0.000002 4.549894 2.262927 -5.021491 5.746038 0.974462 -7.360905 -0.025884 -2.761170 5.556170 0.000005 -0.000006 0.000001 -2.954810 -3.285680 5.620562 -2.676531 -3.292467 7.449402 -0.801497 -0.171011 3.420383 0.000000 0.000002 -0.000002 -2.819398 0.170302 -3.713083 4.097840 -1.444657 2.903268 -3.062428 -0.003809 -1.072782 0.000000 -0.000001 -0.000000 3.808607 -2.136128 4.741607 -1.024228 0.051119 -0.912910 -2.139285 -2.805069 -0.941084 0.000003 0.000003 -0.000005 
13.396114 101.614990 -2.734524 1.225385 0.259350 0.935661 -0.574418 0.085320 -1.061962 0.663038 -0.129730 0.744338 -0.443024 -0.797428 -0.575523 -1.063713 0.646642 -0.260087 -0.000003 0.000002 -0.000002 3.466457 1.625558 -3.125391 4.349015 1.816144 -5.006625 0.562074 -1.899157 4.111247 0.000003 0.000003 -0.000000 -1.993058 -2.816627 3.877903 -1.203387 -2.832589 5.221890 0.323486 0.034509 2.156090 -0.000000 -0.000002 -0.000001 -1.804542 0.120367 -2.224545 2.935283 -1.125436 1.923082 -1.406835 0.080330 -0.430810 -0.000001 -0.000002 -0.000002 3.168035 -2.280004 2.781311 -2.137929 1.552044 -0.395758 -0.583747 -2.515529 -0.067909 0.000002 0.000002 -0.000003 
13.542583 102.371201 -2.784247 0.558963 0.590488 0.342395 -0.098167 -0.038235 -0.244475 0.543763 0.105210 0.346030 -0.339026 -0.829723 -0.384828 -0.541224 0.314996 -0.146929 0.000001 -0.000005 0.000002 1.902259 0.514051 -1.412969 2.443971 0.852392 -2.163712 0.712092 -0.656428 2.095507 0.000002 0.000003 -0.000001 -0.964038 -1.479152 2.187756 -0.236697 -1.888552 2.611994 -0.325358 -2.543888 1.072509 -0.000000 0.000000 -0.000002 -0.752954 -0.061223 -0.920132 1.290459 -0.473768 1.046023 -0.141970 -0.395333 -0.171070 0.000001 -0.000001 0.000001 1.919122 -1.542194 1.194046 -2.055100 1.720352 -0.048933 -0.022812 -1.694067 0.321444 0.000004 -0.000003 -0.000002 
13.681528 103.068298 -2.844015 0.205316 -0.064356 0.110923 -0.318160 0.021508 -0.101903 0.739986 0.308173 0.079342 -0.528552 -0.179562 -0.041070 0.042430 0.213301 -0.064087 0.000001 -0.000001 -0.000002 0.395580 0.024390 -0.426492 0.368536 0.169104 -0.420250 0.166004 -0.101261 0.108419 0.000002 -0.000002 -0.000001 -0.288202 -0.287424 0.454013 -0.117010 -0.370081 0.418818 -0.034787 0.119179 0.382960 0.000000 -0.000000 -0.000002 -0.409774 0.019136 -0.222928 0.391988 -0.088630 0.171710 -0.064482 0.053511 0.007636 0.000002 -0.000001 -0.000000 0.333221 -0.261733 0.214296 -0.038160 0.045310 0.012509 -0.285737 -0.129378 -0.159857 0.000001 0.000001 0.000000 
13.807271 103.727791 -2.912068 -0.649329 0.206409 -0.349716 1.007769 -0.064374 0.323466 -2.346394 -0.968680 -0.277438 1.672951 0.570975 0.119095 -0.132798 -0.675740 0.201913 -0.000003 -0.000006 -0.000002 -1.251300 -0.096634 1.349279 -1.158732 -0.553178 1.323523 -0.524428 0.322724 -0.341388 -0.000001 0.000001 -0.000000 0.927589 0.894907 -1.447287 0.388393 1.166095 -1.331450 0.104901 -0.378875 -1.212234 -0.000000 0.000001 0.000000 1.298097 -0.050067 0.706770 -1.239550 0.288372 -0.539691 0.204152 -0.169513 -0.023793 0.000001 -0.000001 -0.000002 -1.048823 0.836955 -0.668567 0.120788 -0.143521 -0.039411 0.902486 0.414943 0.501934 -0.000000 0.000002 -0.000006 
13.923303 104.364243 -3.003228 -0.754315 1.036849 -0.580919 0.431258 -0.130172 0.615421 -2.843554 -1.328786 -0.212165 2.460567 0.500957 -0.151712 -0.247070 -1.431407 0.499148 -0.000003 -0.000005 -0.000002 -2.581348 0.364849 3.552303 -1.490184 -3.393331 3.543609 -0.434786 2.340419 0.178022 0.000001 0.000001 0.000000 2.022599 0.911865 -3.182967 1.909412 2.024033 -2.689352 0.831536 -3.185550 -2.400369 0.000001 -0.000000 -0.000002 1.699004 0.192934 1.427215 -1.724165 0.573802 -0.581373 1.557662 -0.994615 0.311411 0.000001 0.000001 -0.000001 -1.912884 0.859169 -2.493140 -0.269431 -0.056600 0.729240 2.555652 1.014888 0.810058 -0.000001 0.000004 0.000001 
14.023069 104.955887 -3.101041 -0.736103 1.628890 -0.753718 0.111069 -0.084711 0.799161 -2.040892 -0.884327 -0.333620 1.358381 1.213315 0.086072 0.117098 -2.565031 1.052166 -0.000002 -0.000008 -0.000003 -2.822726 -1.916400 4.812651 -2.724310 -4.071938 5.215211 -1.703687 4.121074 0.568881 0.000001 -0.000002 0.000001 2.929185 1.726727 -4.953859 2.968114 5.222354 -4.037971 2.151163 -0.111627 -3.460836 0.000000 0.000000 -0.000002 2.172446 0.118110 2.100266 -2.416414 0.966901 -0.867210 2.517139 -1.118660 0.757347 0.000001 -0.000001 -0.000002 -2.256506 0.750062 -3.657869 -0.068472 -0.251653 1.213353 2.684112 1.680168 0.457794 0.000003 0.000000 -0.000003 
14.108478 105.501999 -3.173315 -1.899324 2.370739 -1.170916 0.953589 -0.292528 1.634938 -3.509512 -1.531487 -0.597090 2.439992 1.591005 -0.203298 1.195250 -2.556757 1.577209 -0.000001 -0.000003 -0.000000 -3.512060 -3.656086 6.342318 -4.317710 -4.967748 7.032609 -2.881655 5.063564 -0.653464 -0.000000 -0.000001 -0.000003 3.863281 2.782654 -6.835750 4.090658 8.789424 -5.867606 3.218331 7.203034 -3.668869 -0.000001 0.000001 0.000000 3.565758 -0.070573 2.864984 -3.539420 0.972227 -1.490789 3.768955 -2.070352 0.533184 0.000002 0.000003 -0.000002 -2.603698 1.097721 -4.363019 1.658500 -0.894796 1.704901 2.195200 2.105740 0.428822 -0.000002 -0.000002 -0.000000 
14.181873 105.989136 -3.229061 -0.931123 1.499875 -1.396527 -1.442775 -0.215928 1.642761 -0.923304 -0.480265 -0.564721 1.012195 0.857951 0.045564 1.084234 -2.993276 1.415469 -0.000002 -0.000003 -0.000002 -5.887528 -3.738042 7.731089 -5.919587 -8.211236 7.699868 -5.565107 6.368632 -1.103162 0.000001 0.000000 -0.000003 4.611013 4.493304 -8.639781 3.925034 8.779687 -8.673984 1.202088 6.427386 -4.709159 -0.000000 0.000002 -0.000006 2.359931 0.051352 3.130727 -4.638443 1.641201 -2.232837 3.945137 -3.536918 -0.039256 0.000000 -0.000004 -0.000002 -4.728634 3.237988 -5.654160 2.409364 -1.006406 2.490485 2.388221 3.561909 0.154521 0.000004 -0.000003 -0.000002 
14.246390 106.422478 -3.276473 -1.398442 1.639982 -1.731195 -2.025623 -0.277047 1.997697 -0.427558 -0.417711 -0.484904 0.899474 0.975004 -0.124259 2.045965 -2.439541 1.509840 -0.000000 -0.000004 -0.000000 -6.663130 -4.808522 8.847324 -7.050542 -9.775318 8.652941 -6.808020 7.149949 -1.522310 0.000001 0.000000 -0.000004 5.189573 4.972446 -10.073032 4.999682 11.424290 -10.417451 1.852306 11.805430 -4.194254 0.000001 0.000000 -0.000003 2.417917 0.133374 3.476550 -4.657704 1.832223 -2.407158 4.678079 -4.887057 -0.333563 -0.000001 -0.000001 -0.000003 -5.552329 3.967647 -6.385389 3.460948 -1.382511 3.274841 2.381126 4.037884 0.012235 0.000004 0.000002 -0.000003 
14.317324 106.855339 -3.369433 -1.483907 2.639344 -2.049245 -2.173033 -0.333462 2.429293 -1.358085 -1.257844 -0.070154 1.945799 0.192123 -0.946382 2.512654 -1.996225 1.664589 0.000003 -0.000005 -0.000003 -8.155417 -5.552963 10.191533 -8.372785 -11.342770 9.806809 -8.721261 8.162506 -1.572842 -0.000002 0.000001 -0.000000 6.005081 6.746354 -11.459134 5.708973 13.313114 -12.390097 0.727811 12.990008 -4.808570 0.000001 -0.000001 -0.000004 2.488315 -0.126299 4.065592 -3.717616 1.248305 -1.949251 5.900448 -3.170489 0.812982 0.000001 -0.000001 -0.000001 -5.205054 3.285792 -7.993020 3.513565 -0.040066 4.421565 1.847765 2.624013 0.689506 0.000001 0.000003 -0.000003 
14.375552 107.232559 -3.426979 -2.859498 3.667829 -2.256808 0.018584 -0.357789 2.803837 -2.282110 -1.934701 0.111269 1.440646 0.266207 -1.275788 2.892338 -2.504825 2.150576 -0.000001 -0.000003 -0.000002 -8.520704 -7.803553 11.095590 -9.417819 -13.653213 10.549313 -11.183265 8.522836 -0.536318 0.000000 0.000003 -0.000001 6.825977 8.065711 -13.017897 7.115144 16.396467 -14.487805 0.205436 16.902985 -4.028981 -0.000002 0.000002 -0.000002 4.056080 -0.309961 4.302044 -3.686720 1.139696 -1.370916 5.673659 -3.073568 0.773220 -0.000000 0.000001 -0.000002 -5.404934 3.316334 -8.730667 4.970484 -0.809781 5.135713 2.074540 3.708840 0.531706 0.000002 0.000001 0.000000 
14.421676 107.588791 -3.490962 -3.718476 4.885254 -2.582787 0.680650 -0.453048 3.277151 -2.719873 -2.524328 0.474846 1.953152 -0.674788 -1.992045 2.048424 -3.975700 2.405177 0.000002 -0.000002 -0.000003 -8.890120 -8.724298 11.893770 -9.765770 -15.471447 11.258543 -12.732436 8.634819 0.526301 -0.000000 -0.000001 -0.000004 7.229619 8.706417 -13.619087 8.223034 17.297055 -16.077294 -0.064111 16.310338 -5.026527 -0.000004 -0.000001 -0.000003 4.830760 -0.365282 4.765063 -3.772807 1.053385 -0.904446 6.846319 -4.138474 0.861821 0.000000 -0.000002 -0.000001 -5.396369 3.154949 -8.994484 5.455966 -1.157810 5.473792 2.776927 4.273362 0.747232 0.000006 -0.000001 -0.000005 
14.470405 107.898315 -3.564533 -4.506846 5.182755 -2.797528 0.915793 -0.445160 3.552332 -3.156992 -2.960702 0.663150 2.424201 -1.489385 -2.351619 2.850132 -2.670754 1.751827 -0.000001 0.000001 -0.000005 -9.106467 -9.515189 12.714032 -9.749287 -16.871582 12.628831 -13.505780 8.123596 2.146433 -0.000004 -0.000004 0.000000 7.752129 8.750288 -14.360828 9.711013 17.668376 -17.791277 -0.085642 12.650263 -6.690216 0.000001 0.000003 -0.000001 5.929164 -0.296003 5.113439 -4.348176 1.480358 -0.796949 7.220681 -4.269198 1.003027 0.000001 -0.000001 -0.000000 -6.043400 3.756076 -9.269384 6.771233 -2.148286 6.177937 2.896938 4.463020 0.570251 0.000001 0.000003 -0.000000 
14.550184 108.221413 -3.679084 -3.515493 4.254956 -2.831230 -1.071377 -0.418441 3.570359 -0.430433 -2.054306 1.221319 0.616027 -2.540020 -2.743781 3.075445 -2.184411 1.160147 -0.000001 -0.000003 -0.000003 -8.917480 -10.617318 13.101204 -9.976944 -18.189957 14.338387 -15.050272 8.377564 4.767595 -0.000000 0.000001 -0.000001 8.446308 9.300738 -14.766531 10.703850 16.488848 -19.508835 1.418994 12.177248 -8.413145 -0.000002 0.000002 -0.000003 5.786718 -0.166883 5.124010 -3.506425 1.053912 -0.463768 5.826658 -3.108355 0.646841 0.000001 0.000001 0.000001 -6.628668 4.101273 -11.023802 6.554233 -0.581512 7.605325 2.194740 2.500941 0.923600 0.000004 -0.000002 -0.000005 
